<svg id="Layer_1" xmlns="http://www.w3.org/2000/svg" viewBox="0 0 320 80"><style>.st0{fill:#FFF}</style><path d="M25.6 42.2c0-4.1.2-7.6-.1-11-.3-4.2 1.1-6 5.6-4.8v48.9c-2.6-1.9-4.2-3.1-5.8-4.4-2.7 1-5.9 2.9-9.4 3.2-7.2.8-12.2-2.4-13.7-9.4C1.3 59.8 1 54.2 2 49.2c2-10 11.5-13.7 20.5-8.9.8.5 1.6 1 3.1 1.9zm0 14.3v-5c0-4.8-2.9-7.5-8.9-8.6-4.5-.8-8 1.2-8.8 5.3-.9 5.1-1.1 10.6-.3 15.6 1 5.6 5.7 7.6 11.1 5.9 6.2-1.8 6.9-3.2 6.9-13.2zM294.9 70.5c-2.1 1.7-3.6 2.9-5.2 4.2-.4-.3-.9-.6-1.3-.9V44.5c0-4.5.2-9-.1-13.5-.3-4.5 1.6-5.6 6-4.5v14.9c3.4-1.2 6.2-2.7 9.2-3.1 6.5-.9 12.4 3 14 9.4.8 3.3 1.2 6.9 1 10.3-.3 6-1.1 12.3-7.6 15.2-5.9 2.7-11.6 1.7-16-2.7zm-.4-14.4c0 1.8.2 3.7 0 5.5-.7 5.7 3.5 7.1 7.5 8.3 4.3 1.2 8.7 0 9.6-4.7 1-5.5 1.2-11.5.4-17.1-.7-4.5-4.8-6.1-9.3-5.2-7.3 1.6-8.2 3.1-8.2 13.2zM242.5 5.1c.4 5.5.8 11.1 1.2 16.6.4 0 .8-.1 1.2-.1-.3-5.7-.6-11.4-.9-17.2.5 0 .9-.1 1.4-.1.5 8.3 1 16.6 1.5 25 0 .2 0 .4-.1.5-7.9 7.5-3.3 16.9-3.9 25.4-.4 5.6 0 11.3-.3 17-.1 1.2-1.6 2.3-2.4 3.5-.9-1.1-2.6-2.2-2.6-3.3-.1-10.6.3-21.3 0-31.9-.1-2.9-1.8-5.7-2.8-8.5-.6-1.5-1.9-2.9-1.8-4.4.3-7.6 1-15.1 2.4-22.5v17.2c.3 0 .7 0 1 .1.3-5.7.6-11.5 1-17.2.3 0 .6 0 .9.1V22h1V5.2h1.4v17h.9V5.5c.3-.3.6-.4.9-.4zM122.5 74.1h-5.7V55.3c0-2.3.1-4.7-.4-7-.9-4.4-4.1-6.3-8.5-5.2-7.2 1.8-8.9 3.9-8.9 11.3V74h-5.5c-.2-1.1-.4-2-.4-3V39.8c3.8-1.7 5.2 0 5 3.3 3.6-1.6 6.5-3.2 9.6-4.2 8.1-2.5 14.3 1.4 14.8 9.8.4 8.3 0 16.6 0 25.4zM56.9 38.5c1.5 1.4 3 2.8 4.3 4.1 3.2-1.3 6.6-3.2 10.2-4.1 6.8-1.7 12.8 2.4 13.1 9.3.5 8.6.1 17.2.1 26.1H79V54.4c0-2.3 0-4.7-.6-6.9-.8-3.3-3.2-5.1-6.6-4.8-6.7.5-10.3 4.4-10.3 11.1 0 6.3-.1 12.6-.2 19 0 .3-.3.6-.6 1.2-1.4.1-3 .1-5.3.3V56.7 39.8c.6-.5 1-.9 1.5-1.3zM157.7 57.2h-21.8c-.6 4.7.2 8.8 4 11.3 4.9 3.3 9.8 1.9 14.7-1.5.7 1.3 1.4 2.5 2.3 4-6.3 3.9-12.7 5-19.2 2-6-2.7-7.7-8.4-7.9-14.5-.1-2.9.2-6 .9-8.9 2.3-8.5 9.3-12.8 17.4-10.9 8 1.9 11.6 8.5 9.6 18.5zm-21.6-4.1h16.6c.3-6.4-2.7-10.4-7.5-10.5-4.9-.1-8.8 4.3-9.1 10.5zM274.5 39.3h5.6v34.2c-.4.4-.8.7-1.2 1.1-1.6-1.3-3.2-2.5-4-3.2-4.6 1-9.1 2.6-13.6 2.8-5.3.2-9.1-3.1-9.4-8.4-.5-8.7-.1-17.5-.1-26.5h5.2c0 7.2-.1 14.1 0 21.1.1 3.7.3 8.3 4.4 9.1 3.3.6 7.3-.9 10.6-2.3 1.4-.6 2.4-3.4 2.4-5.3.2-7.3.1-14.6.1-22.6zM228.3 66.8c.6 1.5 1.1 2.7 1.5 3.8-7.8 5.4-17.4 5.2-22.5-.2-5.7-6.1-5.9-20.2-.3-27 5.2-6.3 13.9-6.9 22.8-1.4l-1.5 3.9c-8.1-4.1-13.8-3.8-17.3.7-3.5 4.7-3 16.5.9 20.8 3.4 3.9 8.5 3.8 16.4-.6zM170.8 74h-5.7V39.5c3.2-1.1 5.2-.5 4.8 3.1 4-1.8 7.8-3.6 12.4-5.7.2 2.9.3 4.3.4 6-.9.1-1.5.2-2.2.3-7.1.8-9.8 3.7-9.8 10.8.1 6.5.1 13 .1 20zM41 39.3h4.8v34.6c-1.6.1-3 .1-4.8.2V39.3zM43.4 25.1c1.7 2.6 3.3 4 3.2 5.1-.2 1.3-1.9 2.4-3 3.6-1.1-1.1-2.9-2.2-3.1-3.5-.3-1 1.3-2.5 2.9-5.2z"/><path class="st0" d="M25.6 56.5c0 10-.7 11.4-6.8 13.3-5.5 1.7-10.2-.3-11.1-5.9-.8-5.1-.6-10.6.3-15.7.7-4.1 4.2-6.2 8.8-5.3 6 1.1 8.8 3.8 8.9 8.6-.1 1.6-.1 3.3-.1 5zM294.5 56.1c0-10.2.9-11.6 8.1-13.1 4.5-.9 8.6.7 9.3 5.2.8 5.6.7 11.5-.4 17.1-.9 4.6-5.3 5.9-9.6 4.7-3.9-1.1-8.2-2.5-7.5-8.3.3-1.9.1-3.7.1-5.6zM136.1 53.1c.4-6.2 4.2-10.6 9.1-10.5 4.8.1 7.8 4 7.5 10.5h-16.6z"/></svg>